<?xml version="1.0" encoding="utf-8"?>
<!-- Generator: Adobe Illustrator 24.2.3, SVG Export Plug-In . SVG Version: 6.00 Build 0)  -->
<svg version="1.1" id="Layer_1" xmlns="http://www.w3.org/2000/svg" xmlns:xlink="http://www.w3.org/1999/xlink" x="0px" y="0px"
	 viewBox="0 0 1080 1080" style="enable-background:new 0 0 1080 1080;" xml:space="preserve">
<style type="text/css">
	.st0{fill:#CAE6EB;}
	.st1{fill:#FFFFFF;}
	.st2{fill:#666666;}
	.st3{fill:#E1AA12;}
	.st4{fill:#333333;}
	.st5{fill:#008290;}
	.st6{fill:#00B0A6;}
	.st7{fill:#013A67;}
	.st8{fill:#072446;}
	.st9{fill:none;stroke:#000000;stroke-miterlimit:10;}
	.st10{fill:none;stroke:#FFFFFF;stroke-width:3;stroke-miterlimit:10;}
	.st11{fill:none;stroke:#FFFFFF;stroke-width:3;stroke-linejoin:round;stroke-miterlimit:10;}
	.st12{fill:none;stroke:#FFFFFF;stroke-width:7;stroke-linecap:round;stroke-miterlimit:10;}
</style>
<g>
	<path class="st1" d="M250.18,23.96c-14.01,50.09-27.97,100-41.94,149.9c-5.27,18.83-10.84,37.59-15.72,56.52
		c-1.06,4.12-1.23,9.66,0.69,13.18c18.92,34.76,38.36,69.23,58.38,105.1c19.19-71.6,38.12-142.23,57.54-214.68
		c76.12,21.33,146.92,41.17,221.17,61.97c-6.59-11.8-11.42-20.56-16.35-29.26c-14.05-24.83-27.92-49.76-42.4-74.34
		c-2.53-4.3-7.1-8.97-11.64-10.29c-68.19-19.74-136.54-38.96-204.86-58.26C254.28,23.59,253.38,23.84,250.18,23.96z"/>
	<path class="st1" d="M23.16,826.75c50.09,14.01,100,27.97,149.9,41.94c18.83,5.27,37.59,10.84,56.52,15.72
		c4.12,1.06,9.66,1.23,13.18-0.69c34.76-18.92,69.23-38.36,105.1-58.38c-71.6-19.19-142.23-38.12-214.68-57.54
		c21.33-76.12,41.17-146.92,61.97-221.17c-11.8,6.59-20.56,11.42-29.26,16.35c-24.83,14.05-49.76,27.92-74.34,42.4
		c-4.3,2.53-8.97,7.1-10.29,11.64C61.52,685.22,42.31,753.56,23,821.88C22.79,822.65,23.04,823.54,23.16,826.75z"/>
	<path class="st1" d="M1056.84,252.09c-50.09-14.01-100-27.97-149.9-41.94c-18.83-5.27-37.59-10.84-56.52-15.72
		c-4.12-1.06-9.66-1.23-13.18,0.69c-34.76,18.92-69.23,38.36-105.1,58.38c71.6,19.19,142.23,38.12,214.68,57.54
		c-21.33,76.12-41.17,146.92-61.97,221.17c11.8-6.59,20.56-11.42,29.26-16.35c24.83-14.05,49.76-27.92,74.34-42.4
		c4.3-2.53,8.97-7.1,10.29-11.64c19.74-68.19,38.96-136.54,58.26-204.86C1057.21,256.2,1056.96,255.3,1056.84,252.09z"/>
	<path class="st1" d="M829.49,1056.04c14.01-50.09,27.97-100,41.94-149.9c5.27-18.83,10.84-37.59,15.72-56.52
		c1.06-4.12,1.23-9.66-0.69-13.18c-18.92-34.76-38.36-69.23-58.38-105.1c-19.19,71.6-38.12,142.23-57.54,214.68
		c-76.12-21.33-146.92-41.17-221.17-61.97c6.59,11.8,11.42,20.56,16.35,29.26c14.05,24.83,27.92,49.76,42.4,74.34
		c2.53,4.3,7.1,8.97,11.64,10.29c68.19,19.74,136.54,38.96,204.86,58.26C825.39,1056.41,826.29,1056.16,829.49,1056.04z"/>
</g>
</svg>
